<svg id="SvgjsSvg1001" width="288" height="288" xmlns="http://www.w3.org/2000/svg" version="1.1" xmlns:xlink="http://www.w3.org/1999/xlink" xmlns:svgjs="http://svgjs.com/svgjs"><defs id="SvgjsDefs1002"></defs><g id="SvgjsG1008" transform="matrix(1,0,0,1,0,0)"><svg xmlns="http://www.w3.org/2000/svg" width="288" height="288" viewBox="0 0 512 512"><g data-name="Out line" fill="#2584ff" class="color000 svgShape"><path d="m184 304h-112a8.00008 8.00008 0 0 0 -8 8v96a8.00008 8.00008 0 0 0 8 8h112a8.00008 8.00008 0 0 0 8-8v-96a8.00008 8.00008 0 0 0 -8-8zm-8 96h-96v-80h96z" fill="#2584ff" class="color000 svgShape"></path><path d="M96 336h32v16h-32zM128 368h32v16h-32z" fill="#2584ff" class="color000 svgShape"></path><path d="m380 64h-244v-40a7.99985 7.99985 0 0 0 -12.87793-6.34082l-104 80a8 8 0 0 0 0 12.68164l104 80a7.99985 7.99985 0 0 0 12.87793-6.34082v-40h216a64.07239 64.07239 0 0 1 64 64v144a63.89737 63.89737 0 0 1 -48 61.99341v-181.99341a8.00008 8.00008 0 0 0 -8-8h-336a8.00008 8.00008 0 0 0 -8 8v256a8.00008 8.00008 0 0 0 8 8h356a116.13134 116.13134 0 0 0 116-116v-200a116.13134 116.13134 0 0 0 -116-116zm-28 176v192h-112v-192zm-208 0v32h-32v-32zm-112 0h64v40a8.00008 8.00008 0 0 0 8 8h48a8.00008 8.00008 0 0 0 8-8v-40h64v192h-192zm448 140a100.113 100.113 0 0 1 -100 100h-348v-32h328a8.00008 8.00008 0 0 0 8-8v-9.605a79.86446 79.86446 0 0 0 64-78.395v-144a80.09041 80.09041 0 0 0 -80-80h-224a8.00008 8.00008 0 0 0 -8 8v31.75293l-82.87891-63.75293 82.87891-63.75293v31.75293a8.00008 8.00008 0 0 0 8 8h252a100.113 100.113 0 0 1 100 100z" fill="#2584ff" class="color000 svgShape"></path><path d="M320 400h16v16h-16zM288 400h16v16h-16zM256 400h16v16h-16z" fill="#2584ff" class="color000 svgShape"></path></g></svg></g></svg>